<?xml version="1.0" encoding="UTF-8"?>
<svg id="Layer_2" data-name="Layer 2" xmlns="http://www.w3.org/2000/svg" viewBox="0 0 491.48 516.5">
  <defs>
    <style>
      .cls-1 {
        fill: #7b1113;
        stroke-width: 0px;
      }
    </style>
  </defs>
  <g id="Layer_1-2" data-name="Layer 1">
    <g>
      <path class="cls-1" d="M353.93,50.01c56.15,29.12,96.75,71.38,119.78,129.34,55.18,138.9-22.93,291.9-167.78,329.59-32.04,8.33-64.23,10.88-96.55,2.01-20.94-5.75-39.21-15.92-51.66-34.47-12.24-18.23-11.95-38.38-8.16-58.81,6-32.34,19.58-61.95,33.74-91.31,14.14-29.33,30.09-57.73,44.78-86.76,6.2-12.26,11.3-25.02,11.79-39.01.76-21.63-10.11-35.24-31.38-39.76-2.79-.59-5.61-1.07-8.93-1.71,4.81-11.85,9.49-23.34,14.12-34.85.67-1.67,1.68-2.67,3.48-3.15,19.8-5.29,39.8-9.02,60.24-4.73,24.5,5.14,37.95,22.36,38.31,47.4.36,24.73-7.46,47.48-17.39,69.45-18.61,41.19-38.22,81.92-57.09,122.99-7.87,17.14-15.16,34.58-20.04,52.87-3.58,13.42-4.91,27.02-.28,40.49,6.39,18.58,24.58,31.02,45.64,31.76,16.98.6,32.97-3.75,48.31-10.29,75.36-32.07,121.81-88.08,138.84-168.35,7.13-33.62-.99-65.21-13.55-95.82-19.93-48.54-53.43-85.45-99.29-110.99-4.09-2.28-4.8-3.42-1.47-7.28,9.21-10.7,13.58-23.55,14.55-38.62Z"/>
      <path class="cls-1" d="M19.11,366.41c-29.42-78.01-25.89-153.07,17.69-223.91C80.21,71.95,144.99,34.3,228.14,25.53c-4.22,14-4.96,26.97-1.47,40.15,1.02,3.86-2.98,2.51-4.77,2.6-20.64,1.03-40.94,4.25-60.3,11.44C74.74,111.95,23.73,173.75,10.03,265.57c-4.85,32.53-.96,64.53,8.96,95.82.41,1.29,1.63,2.53.12,5.02Z"/>
      <path class="cls-1" d="M290.12,89.99c-25.11-.2-44.82-20.38-44.46-45.55C246,19.73,265.96-.25,290.03,0c26.42.28,45.87,19.7,45.67,45.59-.2,25.1-20.21,44.59-45.58,44.4Z"/>
    </g>
  </g>
</svg>
