<?xml version="1.0" encoding="UTF-8"?>
<svg id="Layer_2" data-name="Layer 2" xmlns="http://www.w3.org/2000/svg" viewBox="0 0 728.29 269.98">
  <defs>
    <style>
      .cls-1, .cls-2 {
        stroke-width: 0px;
      }

      .cls-2 {
        fill: #7b1113;
      }
    </style>
  </defs>
  <g id="Layer_1-2" data-name="Layer 1">
    <g>
      <g>
        <path class="cls-2" d="M299.8,37.02l-21.74,138.17h-23.25l21.93-138.17h23.06Z"/>
        <path class="cls-2" d="M313.22,175.19h-22.11l14.74-93.37h20.41l-.19,16.82-2.08-2.27c3.02-5.29,7.28-9.48,12.76-12.57,5.48-3.09,11.44-4.63,17.86-4.63,7.68,0,13.86,2.05,18.52,6.14,4.66,4.1,7.43,9.92,8.32,17.48h-4.16c2.52-7.18,6.9-12.91,13.14-17.2,6.24-4.28,13.33-6.43,21.26-6.43,6.8,0,12.66,1.51,17.58,4.54,4.91,3.02,8.51,7.18,10.77,12.47,2.27,5.29,2.9,11.34,1.89,18.15l-9.45,60.86h-22.11l8.51-55.19c1.13-6.43.31-11.53-2.46-15.31-2.77-3.78-7.06-5.67-12.85-5.67-3.91,0-7.44.88-10.58,2.65-3.15,1.77-5.7,4.35-7.66,7.75-1.96,3.4-3.31,7.63-4.06,12.66l-8.51,53.11h-22.11l8.69-55.38c1.13-6.05.31-10.99-2.46-14.84-2.77-3.84-6.99-5.77-12.66-5.77-4.03,0-7.59.85-10.68,2.55-3.09,1.7-5.64,4.25-7.66,7.66-2.02,3.4-3.4,7.56-4.16,12.47l-8.51,53.3Z"/>
        <path class="cls-2" d="M468.97,177.65c-8.44,0-15.25-2.36-20.41-7.09-5.17-4.73-7.75-10.87-7.75-18.43,0-9.57,3.34-17.23,10.02-22.97,6.68-5.73,16.26-9.04,28.73-9.92l27.79-2.46.19-1.89c1.01-6.05,0-10.61-3.02-13.7-3.02-3.09-7.75-4.63-14.18-4.63-12.47,0-19.6,5.29-21.36,15.88h-19.66c1.64-10.58,6.2-18.77,13.7-24.57,7.5-5.79,17.36-8.69,29.58-8.69,12.98,0,22.78,3.53,29.39,10.58,6.62,7.06,8.91,16.57,6.9,28.54l-9.07,56.89h-19.47l.57-13.99c-2.65,5.04-6.9,9.04-12.76,12-5.86,2.96-12.26,4.44-19.18,4.44ZM477.47,160.64c7.18,0,13.2-2.11,18.05-6.33,4.85-4.22,7.78-9.92,8.79-17.11l.76-5.1-19.66,1.7c-7.56.5-13.14,2.11-16.73,4.82-3.59,2.71-5.39,6.4-5.39,11.06,0,3.4,1.23,6.08,3.69,8.03,2.46,1.96,5.95,2.93,10.49,2.93Z"/>
        <path class="cls-2" d="M530.02,133.99c0-7.68,1.29-14.84,3.87-21.45,2.58-6.62,6.17-12.38,10.77-17.3,4.6-4.91,9.95-8.79,16.07-11.62,6.11-2.84,12.69-4.25,19.75-4.25s13.7,1.77,19.18,5.29c5.48,3.53,8.98,8.25,10.49,14.18l-2.84.76,4.91-17.77h20.6l-13.99,88.65c-2.52,16.76-8.07,29.36-16.63,37.8-8.57,8.44-20.1,12.66-34.59,12.66-8.82,0-16.63-1.67-23.44-5.01-6.8-3.34-12.1-8.03-15.88-14.08-3.78-6.05-5.67-13.04-5.67-20.98h21.93c.38,6.05,2.65,10.87,6.8,14.46,4.16,3.59,9.7,5.39,16.63,5.39,7.68,0,13.92-2.24,18.71-6.71,4.79-4.47,7.94-10.93,9.45-19.37l3.78-23.82,2.27,2.46c-3.15,6.3-7.72,11.22-13.7,14.74-5.99,3.53-12.7,5.29-20.13,5.29s-14.05-1.67-19.85-5.01c-5.8-3.34-10.33-7.97-13.61-13.89-3.28-5.92-4.91-12.73-4.91-20.41ZM552.51,132.1c0,6.68,1.95,12.07,5.86,16.16,3.9,4.1,9.01,6.14,15.31,6.14,5.79,0,10.96-1.48,15.5-4.44,4.54-2.96,8.13-6.99,10.77-12.1,2.65-5.1,3.97-10.87,3.97-17.29s-1.92-11.97-5.77-15.88c-3.85-3.9-9.11-5.86-15.78-5.86-5.67,0-10.74,1.48-15.22,4.44-4.47,2.96-8.03,6.96-10.68,12-2.65,5.04-3.97,10.65-3.97,16.82Z"/>
        <path class="cls-2" d="M628.87,135.12c0-7.81,1.42-15.09,4.25-21.83,2.84-6.74,6.74-12.66,11.72-17.77,4.98-5.1,10.8-9.07,17.48-11.91,6.68-2.84,13.8-4.25,21.36-4.25,8.95,0,16.76,1.77,23.44,5.29,6.68,3.53,11.88,8.48,15.59,14.84,3.72,6.36,5.58,13.77,5.58,22.21,0,7.81-1.42,15.09-4.25,21.83-2.84,6.74-6.74,12.63-11.72,17.67-4.98,5.04-10.81,9.01-17.48,11.91-6.68,2.9-13.8,4.35-21.36,4.35-8.82,0-16.6-1.77-23.34-5.29-6.74-3.53-11.97-8.47-15.69-14.84-3.72-6.36-5.58-13.77-5.58-22.21ZM651.55,133.42c0,7.44,2.08,13.36,6.24,17.77,4.16,4.41,9.83,6.62,17.01,6.62,5.67,0,10.84-1.51,15.5-4.54,4.66-3.02,8.38-7.18,11.15-12.48,2.77-5.29,4.16-11.09,4.16-17.39,0-7.43-2.08-13.39-6.24-17.86-4.16-4.47-9.77-6.71-16.82-6.71-5.67,0-10.84,1.54-15.5,4.63-4.66,3.09-8.41,7.22-11.25,12.38-2.84,5.17-4.25,11.03-4.25,17.58Z"/>
      </g>
      <g>
        <path class="cls-1" d="M232.98,235.9h9.56c5.04,0,8.14,2.55,8.14,6.75,0,3.07-1.35,5.15-4.05,6.2,3.03.99,4.56,3.1,4.56,6.31,0,4.2-3.14,6.86-8.1,6.86h-10.11v-26.13ZM235.6,238.23v9.56h7.23c3.28,0,5.15-1.82,5.15-4.93,0-2.92-1.97-4.63-5.47-4.63h-6.9ZM235.6,250.09v9.56h7.48c3.43,0,5.44-1.79,5.44-4.82s-2.04-4.74-5.44-4.74h-7.48Z"/>
        <path class="cls-1" d="M253.23,253.19c0-5.51,3.43-9.31,8.47-9.31s8.03,3.39,8.03,8.39v1.24h-14.05c.18,4.31,2.44,6.79,6.24,6.79,2.88,0,4.74-1.24,5.4-3.58h2.41c-.95,3.72-3.69,5.73-7.85,5.73-5.18,0-8.65-3.72-8.65-9.27ZM255.75,251.7h11.46c0-3.39-2.19-5.66-5.51-5.66s-5.51,2.19-5.95,5.66Z"/>
        <path class="cls-1" d="M270.6,267.65h1.93c1.53,0,3.07-.11,3.94-2.48l.77-2.08-7.15-18.72h2.66l5.69,15.4,5.58-15.4h2.59l-8.1,21.71c-1.02,2.77-2.74,3.9-5.26,3.9-1.06,0-1.86-.07-2.66-.26v-2.08Z"/>
        <path class="cls-1" d="M295.78,243.89c5.18,0,8.98,3.9,8.98,9.31s-3.8,9.27-8.98,9.27-8.98-3.9-8.98-9.27,3.8-9.31,8.98-9.31ZM295.78,260.2c3.76,0,6.42-2.88,6.42-7.04s-2.66-7.01-6.42-7.01-6.42,2.92-6.42,7.01,2.63,7.04,6.42,7.04Z"/>
        <path class="cls-1" d="M307.86,262.03v-17.66h2.19l.36,3.07c1.17-2.26,3.5-3.54,6.06-3.54,4.85,0,6.86,2.88,6.86,7.33v10.8h-2.52v-10.25c0-4.12-1.86-5.58-4.78-5.58-3.61,0-5.66,2.63-5.66,6.61v9.23h-2.52Z"/>
        <path class="cls-1" d="M326.22,253.23c0-5.33,3.03-9.34,8.28-9.34,2.92,0,5.26,1.28,6.5,3.83v-12.3h2.52v26.6h-2.19l-.26-3.61c-1.24,2.74-3.72,4.05-6.68,4.05-5.15,0-8.17-3.94-8.17-9.23ZM340.96,253.16c0-4.05-2.26-7.01-6.13-7.01s-6.06,2.96-6.06,7.01,2.23,7.01,6.06,7.01,6.13-2.92,6.13-7.01Z"/>
        <path class="cls-1" d="M355.81,253.19c0-5.51,3.43-9.31,8.47-9.31s8.03,3.39,8.03,8.39v1.24h-14.05c.18,4.31,2.44,6.79,6.24,6.79,2.88,0,4.74-1.24,5.4-3.58h2.41c-.95,3.72-3.69,5.73-7.85,5.73-5.18,0-8.65-3.72-8.65-9.27ZM358.33,251.7h11.46c0-3.39-2.19-5.66-5.51-5.66s-5.51,2.19-5.95,5.66Z"/>
        <path class="cls-1" d="M375.41,262.03v-17.66h2.19l.29,2.52c.88-1.86,2.85-2.99,5.33-2.99,2.77,0,4.85,1.46,5.69,3.76.8-2.3,2.96-3.76,5.8-3.76,3.83,0,6.35,2.48,6.35,6.57v11.57h-2.44v-11.06c0-3.03-1.68-4.82-4.38-4.82-2.96,0-4.71,2.23-4.71,4.96v10.91h-2.48v-11.09c0-2.99-1.72-4.74-4.38-4.74-2.96,0-4.74,2.19-4.74,4.89v10.95h-2.52Z"/>
        <path class="cls-1" d="M412.96,243.89c5.18,0,8.98,3.9,8.98,9.31s-3.8,9.27-8.98,9.27-8.98-3.9-8.98-9.27,3.8-9.31,8.98-9.31ZM412.96,260.2c3.76,0,6.42-2.88,6.42-7.04s-2.66-7.01-6.42-7.01-6.42,2.92-6.42,7.01,2.63,7.04,6.42,7.04Z"/>
        <path class="cls-1" d="M426.42,262.03v-15.55h-3.54v-2.12h3.54v-5.58h2.48v5.58h3.54v2.12h-3.54v15.55h-2.48Z"/>
        <path class="cls-1" d="M434.2,237.65c0-1.02.84-1.9,1.86-1.9s1.9.88,1.9,1.9-.88,1.86-1.9,1.86-1.86-.84-1.86-1.86ZM434.82,244.36h2.52v17.66h-2.52v-17.66Z"/>
        <path class="cls-1" d="M449.41,243.89c5.18,0,8.98,3.9,8.98,9.31s-3.8,9.27-8.98,9.27-8.98-3.9-8.98-9.27,3.8-9.31,8.98-9.31ZM449.41,260.2c3.76,0,6.42-2.88,6.42-7.04s-2.66-7.01-6.42-7.01-6.42,2.92-6.42,7.01,2.63,7.04,6.42,7.04Z"/>
        <path class="cls-1" d="M461.49,262.03v-17.66h2.19l.36,3.07c1.17-2.26,3.5-3.54,6.06-3.54,4.85,0,6.86,2.88,6.86,7.33v10.8h-2.52v-10.25c0-4.12-1.86-5.58-4.78-5.58-3.61,0-5.66,2.63-5.66,6.61v9.23h-2.52Z"/>
        <path class="cls-1" d="M480.18,257.25c0-3.25,2.48-5.29,6.61-5.62l5.84-.47v-.58c0-3.47-2.08-4.56-4.67-4.56-3.07,0-4.89,1.39-4.89,3.76h-2.3c0-3.58,2.92-5.88,7.26-5.88,4.09,0,7.08,2.04,7.08,6.71v11.42h-2.12l-.33-3.1c-1.1,2.23-3.5,3.54-6.5,3.54-3.76,0-5.98-2.12-5.98-5.22ZM492.62,254v-.95l-5.22.4c-3.32.29-4.67,1.75-4.67,3.72,0,2.15,1.61,3.25,4.01,3.25,3.72,0,5.88-2.59,5.88-6.42Z"/>
        <path class="cls-1" d="M499.34,262.03v-26.6h2.52v26.6h-2.52Z"/>
        <path class="cls-1" d="M522.8,243.89c4.09,0,7.08,2.37,7.77,6.02h-2.52c-.66-2.44-2.77-3.8-5.22-3.8-3.58,0-6.09,2.74-6.09,7.08s2.34,7.01,5.91,7.01c2.63,0,4.74-1.46,5.44-3.72h2.55c-.84,3.61-3.98,5.98-7.99,5.98-5,0-8.39-3.69-8.39-9.23s3.39-9.34,8.54-9.34Z"/>
        <path class="cls-1" d="M541.3,243.89c5.18,0,8.98,3.9,8.98,9.31s-3.8,9.27-8.98,9.27-8.98-3.9-8.98-9.27,3.8-9.31,8.98-9.31ZM541.3,260.2c3.76,0,6.42-2.88,6.42-7.04s-2.66-7.01-6.42-7.01-6.42,2.92-6.42,7.01,2.63,7.04,6.42,7.04Z"/>
        <path class="cls-1" d="M553.38,262.03v-17.66h2.19l.36,3.07c1.17-2.26,3.5-3.54,6.06-3.54,4.85,0,6.86,2.88,6.86,7.33v10.8h-2.52v-10.25c0-4.12-1.86-5.58-4.78-5.58-3.61,0-5.66,2.63-5.66,6.61v9.23h-2.52Z"/>
        <path class="cls-1" d="M570.31,244.36h2.7l4.56,11.39c.47,1.28.95,2.48,1.28,3.65.33-1.2.8-2.37,1.31-3.65l4.63-11.39h2.59l-7.33,17.66h-2.52l-7.23-17.66Z"/>
        <path class="cls-1" d="M587.43,253.19c0-5.51,3.43-9.31,8.47-9.31s8.03,3.39,8.03,8.39v1.24h-14.05c.18,4.31,2.44,6.79,6.24,6.79,2.88,0,4.74-1.24,5.4-3.58h2.41c-.95,3.72-3.69,5.73-7.85,5.73-5.18,0-8.65-3.72-8.65-9.27ZM589.95,251.7h11.46c0-3.39-2.19-5.66-5.51-5.66s-5.51,2.19-5.95,5.66Z"/>
        <path class="cls-1" d="M607.03,262.03v-17.66h2.19l.36,3.07c1.17-2.26,3.5-3.54,6.06-3.54,4.85,0,6.86,2.88,6.86,7.33v10.8h-2.52v-10.25c0-4.12-1.86-5.58-4.78-5.58-3.61,0-5.66,2.63-5.66,6.61v9.23h-2.52Z"/>
        <path class="cls-1" d="M626,237.65c0-1.02.84-1.9,1.86-1.9s1.9.88,1.9,1.9-.88,1.86-1.9,1.86-1.86-.84-1.86-1.86ZM626.62,244.36h2.52v17.66h-2.52v-17.66Z"/>
        <path class="cls-1" d="M632.24,253.19c0-5.51,3.43-9.31,8.47-9.31s8.03,3.39,8.03,8.39v1.24h-14.05c.18,4.31,2.44,6.79,6.24,6.79,2.88,0,4.74-1.24,5.4-3.58h2.41c-.95,3.72-3.69,5.73-7.85,5.73-5.18,0-8.65-3.72-8.65-9.27ZM634.76,251.7h11.46c0-3.39-2.19-5.66-5.51-5.66s-5.51,2.19-5.95,5.66Z"/>
        <path class="cls-1" d="M651.84,262.03v-17.66h2.19l.36,3.07c1.17-2.26,3.5-3.54,6.06-3.54,4.85,0,6.86,2.88,6.86,7.33v10.8h-2.52v-10.25c0-4.12-1.86-5.58-4.78-5.58-3.61,0-5.66,2.63-5.66,6.61v9.23h-2.52Z"/>
        <path class="cls-1" d="M678.73,243.89c4.09,0,7.08,2.37,7.77,6.02h-2.52c-.66-2.44-2.77-3.8-5.22-3.8-3.58,0-6.09,2.74-6.09,7.08s2.34,7.01,5.91,7.01c2.63,0,4.74-1.46,5.44-3.72h2.55c-.84,3.61-3.98,5.98-7.99,5.98-5,0-8.39-3.69-8.39-9.23s3.39-9.34,8.54-9.34Z"/>
        <path class="cls-1" d="M688.26,253.19c0-5.51,3.43-9.31,8.47-9.31s8.03,3.39,8.03,8.39v1.24h-14.05c.18,4.31,2.44,6.79,6.24,6.79,2.88,0,4.74-1.24,5.4-3.58h2.41c-.95,3.72-3.69,5.73-7.85,5.73-5.18,0-8.65-3.72-8.65-9.27ZM690.78,251.7h11.46c0-3.39-2.19-5.66-5.51-5.66s-5.51,2.19-5.95,5.66Z"/>
      </g>
      <g>
        <path class="cls-2" d="M158.65,22.42c25.17,13.05,43.37,32,53.69,57.98,24.73,62.26-10.28,130.84-75.21,147.74-14.36,3.74-28.79,4.88-43.28.9-9.39-2.58-17.57-7.14-23.16-15.45-5.49-8.17-5.36-17.2-3.66-26.36,2.69-14.5,8.78-27.77,15.12-40.93,6.34-13.15,13.49-25.87,20.07-38.89,2.78-5.5,5.06-11.22,5.28-17.49.34-9.69-4.53-15.8-14.07-17.82-1.25-.27-2.51-.48-4.01-.77,2.15-5.31,4.25-10.46,6.33-15.62.3-.75.75-1.2,1.56-1.41,8.87-2.37,17.84-4.04,27-2.12,10.98,2.3,17.01,10.02,17.17,21.25.16,11.08-3.34,21.28-7.79,31.13-8.34,18.46-17.13,36.72-25.59,55.13-3.53,7.68-6.79,15.5-8.98,23.7-1.6,6.01-2.2,12.11-.12,18.15,2.86,8.33,11.02,13.91,20.46,14.24,7.61.27,14.78-1.68,21.66-4.61,33.78-14.38,54.6-39.48,62.23-75.46,3.2-15.07-.44-29.23-6.08-42.95-8.93-21.76-23.95-38.3-44.51-49.75-1.83-1.02-2.15-1.53-.66-3.26,4.13-4.8,6.09-10.56,6.52-17.31Z"/>
        <path class="cls-2" d="M8.57,164.24c-13.19-34.97-11.61-68.61,7.93-100.37C35.95,32.25,64.99,15.38,102.26,11.45c-1.89,6.28-2.22,12.09-.66,18,.46,1.73-1.34,1.12-2.14,1.16-9.25.46-18.35,1.91-27.03,5.13C33.5,50.18,10.64,77.88,4.5,119.04c-2.18,14.58-.43,28.92,4.02,42.95.18.58.73,1.14.05,2.25Z"/>
        <path class="cls-2" d="M130.04,40.34c-11.26-.09-20.09-9.14-19.93-20.42C110.27,8.85,119.22-.11,130.01,0c11.84.12,20.56,8.83,20.47,20.44-.09,11.25-9.06,19.99-20.43,19.9Z"/>
      </g>
    </g>
  </g>
</svg>
